<svg width="584" height="297" viewBox="0 0 584 297" fill="none" xmlns="http://www.w3.org/2000/svg">
<path d="M0 62L99 294L284.5 203.5L0 62Z" fill="#102D4D"/>
<path d="M583.5 62L484.5 294L299 203.5L583.5 62Z" fill="#102D4D"/>
<path d="M476.5 297H107L291.5 206.5L476.5 297Z" fill="#102D4D"/>
<path d="M364.5 162.5L580 56L368 102L345 119L364.5 162.5Z" fill="#07435B"/>
<path d="M218.5 162.5L3 56L215 102L238 119L218.5 162.5Z" fill="#0F2137"/>
<path d="M291 200V152.5L243 122L223.5 166.5L291 200Z" fill="#00CBD2"/>
<path d="M291 200V152.5L339 122L358.5 166.5L291 200Z" fill="#00A0AA"/>
<path d="M220 99.5V65L264 32H291V104H282.5L291 115V145.5L220 99.5Z" fill="#00677A"/>
<path d="M362 99.5V65L318 32H291V104H299.5L291 115V145.5L362 99.5Z" fill="#102D4D"/>
<path d="M220 66V0L265 32L220 66Z" fill="#00CBD2"/>
<path d="M362 66V0L317 32L362 66Z" fill="#102D4D"/>
<path d="M291 115L282.5 104H299.5L291 115Z" fill="#00CBD2"/>
</svg>
